<?xml version="1.0" encoding="UTF-8" standalone="no"?>
<!-- Created with Inkscape (http://www.inkscape.org/) -->

<svg
   width="1128"
   height="376"
   viewBox="0 0 1128 376"
   version="1.1"
   id="svg1"
   inkscape:version="1.3.2 (091e20e, 2023-11-25, custom)"
   sodipodi:docname="svg3.svg"
   xmlns:inkscape="http://www.inkscape.org/namespaces/inkscape"
   xmlns:sodipodi="http://sodipodi.sourceforge.net/DTD/sodipodi-0.dtd"
   xmlns="http://www.w3.org/2000/svg"
   xmlns:svg="http://www.w3.org/2000/svg">
  <sodipodi:namedview
     id="namedview1"
     pagecolor="#ffffff"
     bordercolor="#000000"
     borderopacity="0.25"
     inkscape:showpageshadow="2"
     inkscape:pageopacity="0.0"
     inkscape:pagecheckerboard="0"
     inkscape:deskcolor="#d1d1d1"
     inkscape:document-units="px"
     inkscape:zoom="1.1356383"
     inkscape:cx="564"
     inkscape:cy="188.44028"
     inkscape:window-width="1920"
     inkscape:window-height="1004"
     inkscape:window-x="-8"
     inkscape:window-y="-8"
     inkscape:window-maximized="1"
     inkscape:current-layer="layer1" />
  <defs
     id="defs1" />
  <g
     inkscape:label="Layer 1"
     inkscape:groupmode="layer"
     id="layer1">
    <path
       d="M 79.584835,296.51216 H 37.782982 V 192.30542 H 9.3067915 V 158.37783 H 37.781888 v -24.14192 c 0,-28.6082 12.594591,-49.125844 54.283274,-49.125844 8.817188,0 22.659788,1.77719 22.659788,1.77719 v 31.503654 h -14.53927 c -14.814408,0 -20.598615,4.50623 -20.598615,16.96436 v 23.02256 h 34.583215 l -3.07959,33.92759 H 79.585957 Z M 175.50022,155.66655 c -0.60906,0 -1.23584,0.0222 -1.85598,0.0378 -38.76107,0 -56.49533,29.15622 -56.49533,70.54426 0,52.13776 23.00372,73.00485 56.7982,73.00485 19.33505,0 32.03835,-8.13827 39.7595,-23.32543 v 20.59858 H 253.4661 V 158.39229 h -39.75949 v 21.24317 c -6.30451,-13.66734 -19.36279,-23.80689 -38.20639,-23.96887 z m 10.1096,32.64073 c 16.27986,0 26.05112,11.35542 26.05112,30.67051 l 0.0378,19.72777 c 0,13.01835 -8.0706,28.24877 -26.08885,28.24877 -27.70075,0 -26.9608,-29.91058 -26.9608,-39.87265 0,-33.51048 14.75893,-38.7744 26.9608,-38.7744 z m 83.91317,39.15933 c 0,-16.78573 -0.80317,-71.71021 70.75507,-71.71021 28.72468,0 40.71911,9.13339 40.71911,9.13339 l -9.64035,29.9006 c 0,0 -11.97889,-6.59627 -27.58759,-6.59627 -19.99179,0 -32.74835,11.5895 -32.74835,31.98068 l 0.0222,14.62138 c 0,19.59353 12.30836,32.6729 32.7672,32.6729 14.21979,0 27.32579,-6.65839 27.32579,-6.65839 l 9.61594,29.27604 c 0,0 -10.96715,9.19106 -40.27314,9.19106 -68.13475,0 -70.95474,-49.27783 -70.95474,-71.81118 z m 344.59868,-71.76235 c 38.76219,0 56.77598,29.15624 56.77598,70.54428 0,52.13776 -23.00482,73.00484 -56.79929,73.00484 -19.33504,0 -33.62806,-8.13715 -41.34921,-23.32542 v 20.59862 l -39.25919,-0.0155 V 89.310106 l 41.68314,-3.63538 v 92.089194 c 6.01606,-16.11125 25.78709,-22.05966 38.94968,-22.05966 z m -11.68602,32.60302 c -16.27987,0 -27.26255,11.35542 -27.26255,30.67051 l -0.0386,19.72777 c -0.0244,13.01835 7.60579,28.24877 27.30138,28.24877 27.70075,0 26.9608,-29.91058 26.9608,-39.87265 0,-33.51048 -14.75783,-38.7744 -26.9608,-38.7744 z M 453.32087,155.81853 c -43.96399,0 -67.17404,23.96996 -67.17404,66.56721 v 7.91418 c 0,55.28724 32.59414,69.52146 71.45284,69.52146 37.77042,0 54.86679,-10.56445 54.86679,-10.56445 l -7.79993,-28.1334 c 0,0 -20.11049,8.5565 -42.0692,8.5565 -22.76408,0 -32.55418,-5.80196 -35.06358,-27.67857 h 88.26522 v -22.56993 c 0,-46.20713 -26.04892,-63.61411 -62.47921,-63.61411 z m 1.05943,28.17112 c 15.21821,0 25.07932,9.33195 24.53797,30.97448 h -51.30796 c 0.88971,-22.77852 11.52405,-30.97338 26.76999,-30.97338 z m 299.63181,-28.36082 c -45.14767,0 -68.91575,25.44208 -68.91575,71.03571 0,62.5569 40.97095,72.62656 68.9912,72.62656 41.01973,0 68.31002,-22.08404 68.31002,-72.05855 0,-52.01461 -30.68493,-71.60372 -68.38547,-71.60372 z m -0.56798,32.79162 c 19.852,0 27.71849,14.85766 27.71849,31.76987 v 14.54041 c 0,20.48767 -11.00708,32.33785 -27.79393,32.33785 -15.69968,0 -26.7334,-11.08473 -26.7334,-32.33785 v -14.54041 c 0,-22.66646 13.1293,-31.76987 26.80884,-31.76987 z M 905.4377,155.62883 c -45.14767,0 -68.91574,25.44208 -68.91574,71.03571 0,62.5569 40.97093,72.62656 68.99118,72.62656 41.01862,0 68.31002,-22.08404 68.31002,-72.05855 0,-52.01461 -30.68604,-71.60372 -68.38546,-71.60372 z m -0.56799,32.79162 c 19.85202,0 27.71739,14.85766 27.71739,31.76987 v 14.54041 c 0,20.48767 -11.00707,32.33785 -27.79283,32.33785 -15.69968,0 -26.73339,-11.08473 -26.73339,-32.33785 v -14.54041 c 0,-22.66646 13.12929,-31.76987 26.80883,-31.76987 z m 84.70526,108.09171 V 89.310106 l 41.80413,-3.63427 V 224.55567 l 41.4745,-66.17673 h 44.1481 l -43.2651,68.53966 44.9315,69.59356 h -44.2735 l -43.0155,-67.57562 v 67.57562 z"
       fill="#1877f2"
       id="path1"
       style="stroke-width:1.10936" />
  </g>
</svg>
